<svg width="10" height="10" viewBox="0 0 10 10" fill="none" xmlns="http://www.w3.org/2000/svg">
<path d="M1.124 9H0.116V0.624H3.452C4.188 0.624 4.76 0.828 5.168 1.236C5.584 1.644 5.792 2.232 5.792 3C5.792 3.616 5.648 4.124 5.36 4.524C5.08 4.916 4.664 5.176 4.112 5.304L6.032 9H4.892L3.08 5.4H1.124V9ZM3.452 4.536C3.852 4.536 4.16 4.432 4.376 4.224C4.6 4.016 4.712 3.72 4.712 3.336V2.712C4.712 2.328 4.6 2.032 4.376 1.824C4.16 1.616 3.852 1.512 3.452 1.512H1.124V4.536H3.452ZM8.30778 9.144C8.05178 9.144 7.86378 9.08 7.74378 8.952C7.63178 8.824 7.57578 8.656 7.57578 8.448V8.292C7.57578 8.084 7.63178 7.916 7.74378 7.788C7.86378 7.66 8.05178 7.596 8.30778 7.596C8.56378 7.596 8.74778 7.66 8.85978 7.788C8.97978 7.916 9.03978 8.084 9.03978 8.292V8.448C9.03978 8.656 8.97978 8.824 8.85978 8.952C8.74778 9.08 8.56378 9.144 8.30778 9.144Z" fill="#51CFB6"/>
</svg>
