<svg width="88" height="89" viewBox="0 0 88 89" fill="none" xmlns="http://www.w3.org/2000/svg">
<path fill-rule="evenodd" clip-rule="evenodd" d="M14.6667 14.6843H73.3334C77.3667 14.6843 80.6667 17.9843 80.6667 22.0177V66.0177C80.6667 70.051 77.3667 73.351 73.3334 73.351H14.6667C10.6334 73.351 7.33337 70.051 7.33337 66.0177L7.37004 22.0177C7.37004 17.9843 10.6334 14.6843 14.6667 14.6843ZM45.9434 46.4743L71.8667 30.2677C72.7834 29.681 73.3334 28.691 73.3334 27.6277C73.3334 25.171 70.6567 23.7043 68.5667 24.9877L44 40.351L19.4334 24.9877C17.3434 23.7043 14.6667 25.171 14.6667 27.6277C14.6667 28.691 15.2167 29.681 16.1334 30.2677L42.0567 46.4743C43.23 47.2077 44.77 47.2077 45.9434 46.4743Z" fill="black"/>
</svg>
