<svg width="82" height="86" viewBox="0 0 82 86" fill="none" xmlns="http://www.w3.org/2000/svg">
<path fill-rule="evenodd" clip-rule="evenodd" d="M41 11.1426C32.6483 11.1426 31.6028 11.1787 28.3228 11.3338C25.0489 11.489 22.8124 12.0287 20.8567 12.8171C18.8067 13.6161 16.9473 14.8698 15.4098 16.4933C13.8462 18.0852 12.6359 20.0113 11.8633 22.1373C11.1069 24.1646 10.5841 26.4851 10.4345 29.8787C10.2869 33.2766 10.25 34.3582 10.25 43.0176C10.25 51.677 10.2849 52.7586 10.4345 56.1586C10.5841 59.5522 11.1048 61.8706 11.8654 63.8978C12.6362 66.0228 13.8457 67.9502 15.4119 69.544C16.9477 71.1648 18.8057 72.4193 20.8567 73.2202C22.8124 74.0065 25.0489 74.5462 28.3228 74.7013C31.6028 74.8565 32.6483 74.8926 41 74.8926C49.3517 74.8926 50.3972 74.8565 53.6772 74.7013C56.951 74.5462 59.1876 74.0065 61.1433 73.2181C63.1933 72.4191 65.0526 71.1653 66.5901 69.5418C68.1538 67.9499 69.3641 66.0239 70.1366 63.8978C70.8951 61.8706 71.4158 59.5522 71.5655 56.1586C71.7151 52.7586 71.75 51.6748 71.75 43.0176C71.75 34.3603 71.7151 33.2766 71.5655 29.8766C71.4158 26.483 70.8951 24.1646 70.1346 22.1373C69.3626 20.0103 68.1523 18.0835 66.5881 16.4912C65.0524 14.8703 63.1943 13.6158 61.1433 12.815C59.1876 12.0308 56.949 11.489 53.6752 11.3338C50.3972 11.1808 49.3537 11.1426 41 11.1426ZM41 16.8865C49.2103 16.8865 50.184 16.9183 53.4271 17.0713C56.4242 17.2137 58.0519 17.7301 59.1363 18.17C60.5714 18.7458 61.5964 19.4386 62.6726 20.5521C63.7488 21.6677 64.4151 22.7302 64.9706 24.2177C65.393 25.3418 65.8931 27.0291 66.0305 30.1358C66.1781 33.4976 66.2089 34.507 66.2089 43.0176C66.2089 51.5282 66.1781 52.5376 66.0305 55.8993C65.8931 59.0061 65.395 60.6933 64.9706 61.8175C64.4785 63.202 63.6932 64.4546 62.6726 65.4831C61.6806 66.5413 60.4721 67.3553 59.1363 67.8652C58.0519 68.303 56.4242 68.8214 53.4271 68.9638C50.184 69.1168 49.2123 69.1487 41 69.1487C32.7877 69.1487 31.816 69.1168 28.5729 68.9638C25.5758 68.8214 23.9481 68.3051 22.8636 67.8652C21.528 67.3551 20.3196 66.5411 19.3274 65.4831C18.3069 64.4545 17.5216 63.2019 17.0293 61.8175C16.607 60.6933 16.1068 59.0061 15.9695 55.8993C15.8219 52.5376 15.7912 51.5282 15.7912 43.0176C15.7912 34.507 15.8219 33.4976 15.9695 30.1358C16.1068 27.0291 16.605 25.3418 17.0293 24.2177C17.5849 22.7302 18.2532 21.6677 19.3274 20.5521C20.3195 19.4939 21.5279 18.6799 22.8636 18.17C23.9481 17.7322 25.5758 17.2137 28.5729 17.0713C31.816 16.9183 32.7897 16.8865 41 16.8865Z" fill="black"/>
<path fill-rule="evenodd" clip-rule="evenodd" d="M41 53.6533C39.6526 53.6533 38.3184 53.3782 37.0735 52.8437C35.8287 52.3092 34.6976 51.5258 33.7449 50.5382C32.7921 49.5506 32.0363 48.3781 31.5207 47.0878C31.0051 45.7974 30.7397 44.4144 30.7397 43.0177C30.7397 41.621 31.0051 40.238 31.5207 38.9476C32.0363 37.6572 32.7921 36.4848 33.7449 35.4972C34.6976 34.5096 35.8287 33.7261 37.0735 33.1917C38.3184 32.6572 39.6526 32.3821 41 32.3821C43.7211 32.3821 46.3309 33.5026 48.255 35.4972C50.1792 37.4917 51.2602 40.1969 51.2602 43.0177C51.2602 45.8384 50.1792 48.5436 48.255 50.5382C46.3309 52.5328 43.7211 53.6533 41 53.6533ZM41 26.6339C36.8081 26.6339 32.7879 28.3601 29.8238 31.4326C26.8597 34.5052 25.1945 38.6724 25.1945 43.0177C25.1945 47.3629 26.8597 51.5302 29.8238 54.6027C32.7879 57.6753 36.8081 59.4014 41 59.4014C45.1918 59.4014 49.212 57.6753 52.1761 54.6027C55.1402 51.5302 56.8054 47.3629 56.8054 43.0177C56.8054 38.6724 55.1402 34.5052 52.1761 31.4326C49.212 28.3601 45.1918 26.6339 41 26.6339ZM61.4036 26.3364C61.4036 27.3636 61.01 28.3486 60.3093 29.0749C59.6087 29.8012 58.6584 30.2092 57.6675 30.2092C56.6766 30.2092 55.7263 29.8012 55.0256 29.0749C54.325 28.3486 53.9313 27.3636 53.9313 26.3364C53.9313 25.3093 54.325 24.3242 55.0256 23.5979C55.7263 22.8717 56.6766 22.4636 57.6675 22.4636C58.6584 22.4636 59.6087 22.8717 60.3093 23.5979C61.01 24.3242 61.4036 25.3093 61.4036 26.3364Z" fill="black"/>
</svg>
