<svg width="82" height="86" viewBox="0 0 82 86" fill="none" xmlns="http://www.w3.org/2000/svg">
<path d="M71.75 15.8301V70.2051C71.75 71.4483 71.2736 72.6406 70.4255 73.5196C69.5775 74.3987 68.4273 74.8926 67.2279 74.8926H14.7721C13.5727 74.8926 12.4225 74.3987 11.5745 73.5196C10.7264 72.6406 10.25 71.4483 10.25 70.2051V15.8301C10.25 14.5869 10.7264 13.3946 11.5745 12.5155C12.4225 11.6364 13.5727 11.1426 14.7721 11.1426H67.2279C68.4273 11.1426 69.5775 11.6364 70.4255 12.5155C71.2736 13.3946 71.75 14.5869 71.75 15.8301ZM28.3382 35.5176H19.2941V65.5176H28.3382V35.5176ZM29.1522 25.2051C29.157 24.4959 29.0269 23.7928 28.7695 23.1357C28.5121 22.4787 28.1324 21.8806 27.652 21.3757C27.1716 20.8708 26.6 20.4689 25.9698 20.1929C25.3396 19.917 24.6631 19.7725 23.979 19.7676H23.8162C22.425 19.7676 21.0907 20.3405 20.107 21.3602C19.1232 22.3799 18.5706 23.763 18.5706 25.2051C18.5706 26.6472 19.1232 28.0302 20.107 29.05C21.0907 30.0697 22.425 30.6426 23.8162 30.6426C24.5003 30.66 25.1811 30.5376 25.8196 30.2822C26.4581 30.0268 27.0418 29.6435 27.5373 29.1542C28.0329 28.665 28.4305 28.0792 28.7076 27.4306C28.9847 26.7819 29.1358 26.083 29.1522 25.3738V25.2051ZM62.7059 47.2926C62.7059 38.2738 57.1709 34.7676 51.6721 34.7676C49.8716 34.6741 48.079 35.0716 46.4731 35.9204C44.8671 36.7693 43.5039 38.0397 42.5194 39.6051H42.2662V35.5176H33.7647V65.5176H42.8088V49.5613C42.6781 47.9271 43.1747 46.3055 44.1907 45.0486C45.2068 43.7918 46.6602 43.0013 48.2353 42.8488H48.579C51.455 42.8488 53.5894 44.7238 53.5894 49.4488V65.5176H62.6335L62.7059 47.2926Z" fill="black"/>
</svg>
