<svg width="70" height="50" viewBox="0 0 70 50" fill="none" xmlns="http://www.w3.org/2000/svg">
<path d="M62.8336 12.512C62.8763 13.0525 62.8763 13.5929 62.8763 14.1383C62.8763 30.7572 48.4298 49.9239 22.0138 49.9239V49.9139C14.2104 49.9239 6.56917 47.9664 0 44.2755C1.13467 44.395 2.27504 44.4548 3.41824 44.4573C9.88503 44.4623 16.167 42.562 21.2545 39.0629C15.1091 38.9608 9.72009 35.4517 7.8375 30.3289C9.99025 30.6925 12.2084 30.6177 14.3213 30.1122C7.62137 28.9267 2.80114 23.7714 2.80114 17.7844C2.80114 17.7296 2.80114 17.6773 2.80114 17.625C4.79748 18.5987 7.0327 19.1392 9.31911 19.1989C3.00873 15.5056 1.06358 8.15371 4.87426 2.4057C12.1658 10.2631 22.9238 15.0399 34.4725 15.5454C33.3151 11.1771 34.8962 6.59966 38.6273 3.52891C44.4115 -1.23287 53.5088 -0.988806 58.9462 4.07432C62.1625 3.51894 65.2452 2.4854 68.0662 1.021C66.9941 3.93236 64.7504 6.4054 61.753 7.97689C64.5996 7.68301 67.3809 7.01556 70 5.99696C68.0719 8.52728 65.6433 10.7313 62.8336 12.512Z" fill="black"/>
</svg>
