<svg width="88" height="76" viewBox="0 0 88 76" fill="none" xmlns="http://www.w3.org/2000/svg">
<path d="M44.181 0.337158C20.5021 0.337158 1.23173 17.1473 1.22338 37.8064C1.21781 44.4129 3.1994 50.8607 6.95663 56.5397L0.861572 75.9561L23.6359 70.746C29.9709 73.7472 37.0149 75.3127 44.1643 75.3083H44.181C67.8599 75.3083 87.1302 58.4957 87.1386 37.8366C87.1442 27.8297 82.68 18.4101 74.5672 11.3296C66.4572 4.24666 55.6725 0.339679 44.181 0.337158ZM44.181 68.979H44.1671C37.7603 68.979 31.476 67.4767 25.9932 64.6385L24.6852 63.963L11.1759 67.0532L14.7828 55.5592L13.9339 54.382C10.3685 49.4571 8.47046 43.6956 8.47343 37.8064C8.48178 20.6333 24.5015 6.66646 44.1949 6.66646C53.7299 6.66899 62.6944 9.91304 69.4379 15.7987C76.1814 21.6844 79.8913 29.511 79.8858 37.8341C79.8774 55.0071 63.8605 68.979 44.1782 68.979H44.181ZM63.7659 45.6506C62.6916 45.1842 57.4148 42.9182 56.4295 42.6031C55.4471 42.2931 54.7318 42.1318 54.0166 43.0694C53.3041 44.0071 51.2446 46.1169 50.6211 46.7395C49.9922 47.3646 49.366 47.4402 48.2917 46.9739C47.2174 46.5051 43.7579 45.517 39.6612 42.3258C36.4689 39.8455 34.3148 36.7805 33.6886 35.8403C33.0624 34.9051 33.6218 34.3985 34.1589 33.9321C34.6404 33.5162 35.2332 32.8407 35.7676 32.2937C36.3019 31.7468 36.4801 31.3561 36.8419 30.7309C37.1981 30.1083 37.02 29.5588 36.75 29.0925C36.4801 28.6212 34.3371 24.0135 33.4381 22.1406C32.5698 20.3157 31.6847 20.5602 31.0251 20.5299C30.3989 20.5047 29.6864 20.4972 28.9656 20.4972C28.2559 20.4972 27.0898 20.7316 26.1046 21.6693C25.1221 22.6069 22.3473 24.8705 22.3473 29.4782C22.3473 34.0884 26.1936 38.5399 26.7308 39.165C27.2679 39.7876 34.3009 49.2475 45.0688 53.3057C47.6293 54.2661 49.6276 54.8433 51.1889 55.2769C53.7605 55.9902 56.1011 55.8868 57.9491 55.6474C60.0086 55.3777 64.3002 53.3839 65.1908 51.1985C66.087 49.0131 66.087 47.1377 65.8198 46.747C65.5582 46.3563 64.8402 46.1219 63.7659 45.6506Z" fill="#25D366"/>
</svg>
