<svg width="64" height="54" viewBox="0 0 64 54" fill="none" xmlns="http://www.w3.org/2000/svg">
<path d="M32.1342 0.75293C14.5693 0.75293 0.274581 12.4303 0.268387 26.7813C0.264258 31.3707 1.73419 35.8497 4.52129 39.7947L0 53.2825L16.8939 49.6632C21.5932 51.7481 26.8184 52.8356 32.1218 52.8325H32.1342C49.6991 52.8325 63.9938 41.1534 64 26.8023C64.0041 19.8509 60.6926 13.3075 54.6746 8.38898C48.6586 3.46871 40.6586 0.754681 32.1342 0.75293ZM32.1342 48.4358H32.1239C27.3714 48.4358 22.7097 47.3922 18.6426 45.4206L17.6723 44.9513L7.6511 47.098L10.3267 39.1135L9.69703 38.2958C7.05219 34.8746 5.64425 30.8723 5.64645 26.7813C5.65264 14.8519 17.536 5.14966 32.1445 5.14966C39.2175 5.15141 45.8674 7.40493 50.8697 11.4935C55.872 15.582 58.624 21.0188 58.6199 26.8006C58.6137 38.7301 46.7324 48.4358 32.1321 48.4358H32.1342ZM46.6622 32.2304C45.8653 31.9065 41.951 30.3323 41.2201 30.1135C40.4914 29.8981 39.9608 29.786 39.4302 30.4374C38.9017 31.0888 37.3739 32.5543 36.9115 32.9868C36.4449 33.4211 35.9804 33.4736 35.1835 33.1497C34.3866 32.824 31.8204 32.1376 28.7814 29.9209C26.4134 28.1979 24.8155 26.0687 24.351 25.4156C23.8865 24.766 24.3014 24.414 24.6999 24.0901C25.057 23.8012 25.4968 23.3319 25.8932 22.9519C26.2895 22.572 26.4217 22.3006 26.6901 21.8663C26.9543 21.4338 26.8222 21.0521 26.6219 20.7282C26.4217 20.4007 24.832 17.1999 24.1652 15.899C23.521 14.6312 22.8645 14.8011 22.3752 14.7801C21.9107 14.7626 21.3822 14.7573 20.8475 14.7573C20.321 14.7573 19.456 14.9202 18.7252 15.5715C17.9964 16.2229 15.9381 17.7953 15.9381 20.9961C15.9381 24.1986 18.7912 27.2909 19.1897 27.7251C19.5881 28.1576 24.8052 34.7291 32.7928 37.5482C34.6921 38.2153 36.1744 38.6163 37.3326 38.9174C39.2403 39.413 40.9765 39.3412 42.3474 39.1748C43.8751 38.9875 47.0586 37.6024 47.7192 36.0843C48.384 34.5662 48.384 33.2635 48.1858 32.9921C47.9917 32.7207 47.4591 32.5578 46.6622 32.2304Z" fill="black"/>
</svg>
